# xmcd
#
# Track frame offsets:
#	150
#	15978
#	30496
#	45586
#	59668
#	74774
#	90294
#	108593
#	119879
#	134328
#	148917
#	162928
#	176089
#
# Disc length: 2566 seconds
#
# Revision: 1
# Processed by: cddbd v1.5.2PL0 Copyright (c) Steve Scherf et al.
# Submitted via: audiograbber 1.83.01
#
DISCID=be0a040d
DTITLE=Mamba - Miehi‰ Ja Ihmisi‰
DYEAR=2014
DGENRE=Pop
TTITLE0=Anna Kauniin Tapahtuu
TTITLE1=Kulkija Unelmineen
TTITLE2=Kaks Arkaa Sieluu
TTITLE3=Sanat, Sanat
TTITLE4=Kaksi Matkustajaa
TTITLE5=Ei Kyynelt‰k‰‰n
TTITLE6=Min‰ Tunnen T‰m‰n Miehen
TTITLE7=Paratiisin Kyy
TTITLE8=Mua Kohtelet Kuin Koiraa
TTITLE9=Tahra Sielussain
TTITLE10=Kulunut Mies
TTITLE11=P‰iv‰ Jonka Sain
TTITLE12=Melankolinen Mieli
EXTD=
EXTT0=
EXTT1=
EXTT2=
EXTT3=
EXTT4=
EXTT5=
EXTT6=
EXTT7=
EXTT8=
EXTT9=
EXTT10=
EXTT11=
EXTT12=
PLAYORDER=
